/* XPM */
static char *darkbeer.xpm[] = {
/* columns rows colors chars-per-pixel */
"32 32 16 1",
"  c black",
". c #111111",
"X c #330000",
"o c #663300",
"O c #666633",
"+ c #555555",
"@ c #800000",
"# c #CC9933",
"$ c #FFCC66",
"% c #FFFF66",
"& c #868686",
"* c #FFFF99",
"= c #C0C0C0",
"- c #FFFFCC",
"; c gray100",
": c None",
/* pixels */
"::::::::::           :::::::::::",
":::::::   --;-**;*;**   ::::::::",
":::::  ;--$*$*$$$*****;;  ::::::",
":::: ;;$$*$*$$#*##**;*;*;- :::::",
"::: ;$$**$##******#####***; ::::",
"::: ;$*$###*;****;****##*#- ::::",
"::: -**##*;*##*****;*;*#;*- ::::",
":::  $$##**##****;****##**  ::::",
"::: ;  $#**##**;**;*####  = ::::",
":::: ;%   ***********   %= :::::",
"::::: ;%%%           %%%= ::::::",
"::::: ;$$#%%%%%%%%%%%###= ::::::",
":::::: ;$###$$$$$$$####= :::::::",
":::::: ;$####$$$$$$####= :::::::",
":::::: ;X####$$$$$#### = :::::::",
":::::: ;XXXX#$$$$$#    = :::::::",
"::::::: ;XXXXooooX    = ::::::::",
"::::::: ;XXXXooooX    = ::::::::",
"::::::: ;XXXXooooX    = ::::::::",
"::::::: ;XXXXooooX    = ::::::::",
"::::::: ;XXXXooooX    = ::::::::",
"::::::: ;XXXXooooX    = ::::::::",
"::::::: ;XXXXooooX    = ::::::::",
"::::::: ;XXXXooooX    = ::::::::",
"::::::: =XXXXooooX    & .:::::::",
"::::::: =XXXXooooX    & ...:::::",
"::::::: =XXXXooooX    & ....::::",
"::::::: ;;X@@ooooX@@ == ....::::",
":::::::: ;OOO@@@@@OOO= .....::::",
":::::::: ;;;OOOOOOO&&= ....:::::",
":::::::::  ;;+++;;&&  ...:::::::",
":::::::::::         ...:::::::::"
};
